<svg xmlns="http://www.w3.org/2000/svg" viewBox="-4 -2 22 11" shape-rendering="crispEdges"><rect x="5" y="0" width="5" height="1" fill="#eef3fa"/><rect x="4" y="1" width="7" height="1" fill="#eef3fa"/><rect x="3" y="2" width="9" height="1" fill="#eef3fa"/><rect x="3" y="3" width="9" height="1" fill="#eef3fa"/><rect x="3" y="4" width="9" height="1" fill="#eef3fa"/><rect x="0" y="5" width="12" height="1" fill="#eef3fa"/><rect x="0" y="6" width="12" height="1" fill="#9aa7bd"/><rect x="-2" y="-1" width="3" height="1" fill="#3ce6a4"/><rect x="0" y="0" width="3" height="1" fill="#3ce6a4"/><rect x="2" y="1" width="3" height="1" fill="#3ce6a4"/><rect x="4" y="2" width="3" height="1" fill="#3ce6a4"/><rect x="6" y="3" width="3" height="1" fill="#3ce6a4"/><rect x="8" y="4" width="3" height="1" fill="#3ce6a4"/><rect x="10" y="5" width="3" height="1" fill="#3ce6a4"/><rect x="12" y="6" width="3" height="1" fill="#3ce6a4"/></svg>
